<?xml version="1.0"?>
<svg width="23" height="32" xmlns="http://www.w3.org/2000/svg" xmlns:svg="http://www.w3.org/2000/svg">
 <g class="layer">
  <title>Layer 1</title>
  <path d="m0.44,20.54c-0.06,-1.84 1.26,-3.34 2.95,-3.37l2.69,-0.05c2.12,-0.04 3.77,-1.93 3.69,-4.22l-0.03,-0.83c-0.06,-1.84 1.26,-3.34 2.95,-3.37l4.6,-0.08l0.46,13.27c0.06,1.84 -1.26,3.34 -2.95,3.37l-14.18,0.25l-0.17,-4.97z" fill="var(--primary-400)" id="svg_1"/>
  <path d="m20.99,1.94c0.15,1.72 -1.17,3.23 -2.95,3.36l-2.83,0.22c-2.23,0.17 -3.88,2.05 -3.69,4.2l0.07,0.78c0.15,1.72 -1.18,3.23 -2.96,3.37l-4.85,0.37l-1.1,-12.46c-0.15,-1.72 1.17,-3.23 2.96,-3.37l14.94,-1.15l0.41,4.67z" fill="var(--primary-300)" id="svg_2"/>
 </g>
</svg>